<svg xmlns="http://www.w3.org/2000/svg" version="1.1" xmlns:xlink="http://www.w3.org/1999/xlink" xmlns:svgjs="http://svgjs.dev/svgjs" viewBox="0 0 800 400"><path d="M2.6881721019744873,343.90679931640625C10.609318945407868,337.66128112792967,32.52688145399094,319.6594934082031,49.28315353393555,307.16845703125C66.03942561388016,294.6774206542969,82.6702477645874,283.5304725646973,101.25447845458984,270.43011474609375C119.83870914459229,257.3297569274902,138.7992911529541,244.7311862182617,158.60215759277344,230.10752868652344C178.40502403259276,215.48387115478516,203.72759201049806,199.79390594482422,217.74192810058594,184.40859985351562C231.75626419067382,169.02329376220703,244.2383526611328,155.7526815032959,241.0394287109375,139.60572814941406C237.8405047607422,123.45877479553222,216.89963958740233,99.32795516967774,198.9247283935547,89.42652130126953C180.94981719970704,79.52508743286133,152.21325889587402,74.81182060241699,135.30465698242188,81.36199951171875C118.39605506896973,87.91217842102051,102.81361785888672,111.65770111083984,99.46236419677734,127.95698547363281C96.11111053466797,144.2562698364258,103.10035987854003,164.74910385131835,115.59140014648438,177.24014282226562C128.0824404144287,189.7311817932129,149.1756314086914,195.9498156738281,172.93907165527344,201.43368530273438C196.70251190185547,206.91755493164064,230.24193252563475,210.8691668701172,255.3763427734375,209.49819946289062C280.51075302124025,208.12723205566405,299.919367980957,202.81361587524415,320.7885437011719,193.36917114257812C341.65771942138673,183.9247264099121,361.8369207763672,165.51970291137695,378.1361999511719,153.94264221191406C394.43547912597654,142.36558151245117,400.5197018432617,133.0376306915283,416.6666564941406,125.26881408691406C432.81361114501954,117.4999974822998,452.0967807006836,112.5089542388916,473.1182861328125,108.24372100830078C494.1397915649414,103.97848777770996,517.3207843017578,101.55017425537109,540.3225708007812,100.17920684814453C563.3243572998047,98.80823944091797,589.68634765625,98.35125030517578,608.4229125976562,100.17920684814453C627.1594775390626,102.00716339111328,636.0663256835937,110.17024383544921,650.5376586914062,110.93189239501953C665.0089916992188,111.69354095458985,682.7329913330078,110.1433634185791,693.5484008789062,104.65949249267578C704.3638104248047,99.17562156677246,705.3225915527344,87.35662364959717,714.15771484375,78.673828125C722.9928381347656,69.99103260040283,738.2078881835937,61.81003076553345,745.5197143554688,53.584224700927734C752.8315405273438,45.35841863632202,753.8172033691407,38.207880511283875,757.16845703125,30.286733627319336C760.5197106933593,22.365586743354797,763.8620037841797,10.949816431999206,765.2329711914062,6.989243030548096" fill="none" stroke-width="2" stroke="hsl(230, 55%, 40%)" stroke-linecap="round" stroke-dasharray="4 18" stroke-opacity="0.37"></path><defs><linearGradient id="SvgjsLinearGradient1003"><stop stop-color="hsl(37, 99%, 67%)" offset="0"></stop><stop stop-color="hsl(316, 73%, 52%)" offset="1"></stop></linearGradient></defs></svg>