<svg xmlns="http://www.w3.org/2000/svg" version="1.1" xmlns:xlink="http://www.w3.org/1999/xlink" xmlns:svgjs="http://svgjs.dev/svgjs" viewBox="0 0 800 400"><path d="M2.6881721019744873,343.3691711425781C5.973715742429098,341.42771402994794,14.336917996406555,336.9474283854167,22.40143394470215,331.7204284667969C30.46594989299774,326.49342854817706,39.42652225494385,320.37037150065106,51.07526779174805,312.0071716308594C62.724013328552246,303.6439717610677,79.59976132710774,291.54720306396484,92.29390716552734,281.5412292480469C104.98805300394694,271.5352554321289,114.54599634806316,263.32139078776044,127.24014282226562,251.97132873535156C139.9342892964681,240.62126668294272,153.07646942138672,226.881716410319,168.4587860107422,213.44085693359375C183.84110260009766,199.9999974568685,202.35961151123047,185.81243133544922,219.53404235839844,171.326171875C236.7084732055664,156.83991241455078,262.8434829711914,141.2186419169108,271.50537109375,126.52330017089844C280.1672592163086,111.82795842488606,274.79091389973956,95.75866254170735,271.50537109375,83.15412139892578C268.21982828776044,70.54958025614421,262.3954594930013,58.06451288859049,251.7921142578125,50.896053314208984C241.1887690226237,43.727593739827476,223.864990234375,40.89007822672526,207.8852996826172,40.14336395263672C191.90560913085938,39.39664967854818,170.10154469807944,39.097965240478516,155.91397094726562,46.415767669677734C141.7263971964518,53.73357009887695,128.2855428059896,71.20668983459473,122.75985717773438,84.05017852783203C117.23417154947917,96.89366722106934,117.9808858235677,112.5746701558431,122.75985717773438,123.47669982910156C127.53882853190105,134.37872950236002,140.97968292236328,143.7873280843099,151.43368530273438,149.4623565673828C161.88768768310547,155.13738505045572,173.98446655273438,156.6308135986328,185.48387145996094,157.52687072753906C196.9832763671875,158.4229278564453,209.3787409464518,155.88409932454428,220.43011474609375,154.8386993408203C231.4814885457357,153.79329935709634,238.50060017903647,152.00118509928384,251.7921142578125,151.2544708251953C265.08362833658856,150.50775655110678,284.94622294108075,151.1051279703776,300.17919921875,150.35841369628906C315.41217549641925,149.61169942220053,329.89845275878906,148.86498514811197,343.1899719238281,146.77418518066406C356.4814910888672,144.68338521321616,368.4289143880208,141.09915669759116,379.9283142089844,137.81361389160156C391.42771402994794,134.52807108561197,400.2389373779297,131.39187240600586,412.1863708496094,127.06092834472656C424.13380432128906,122.72998428344727,440.11351013183594,115.41217931111653,451.6129150390625,111.82794952392578C463.11231994628906,108.24371973673503,468.04062906901044,109.43846384684245,481.18280029296875,105.55554962158203C494.32497151692706,101.67263539632161,515.8303426106771,92.86140823364258,530.4659423828125,88.53046417236328C545.1015421549479,84.19952011108398,554.808827718099,83.30345789591472,568.9963989257812,79.56988525390625C583.1839701334635,75.83631261189778,602.0011596679688,69.86260032653809,615.5913696289062,66.1290283203125C629.1815795898438,62.395456314086914,637.0967915852865,61.64874013264974,650.5376586914062,57.168453216552734C663.978525797526,52.68816630045573,683.0944010416666,42.234164555867515,696.236572265625,39.24730682373047C709.3787434895834,36.26044909159342,716.9952290852865,38.05256334940592,729.3906860351562,39.24730682373047C741.786142985026,40.442050298055015,759.4085998535156,44.77299563090006,770.6093139648438,46.415767669677734C781.8100280761719,48.058539708455406,792.2640279134115,48.65591049194336,796.594970703125,49.103939056396484" fill="none" stroke-width="1" stroke="hsl(230, 55%, 40%)" stroke-linecap="round" stroke-dasharray="12 23" stroke-opacity="0.19"></path><defs><linearGradient id="SvgjsLinearGradient1005"><stop stop-color="hsl(37, 99%, 67%)" offset="0"></stop><stop stop-color="hsl(316, 73%, 52%)" offset="1"></stop></linearGradient></defs></svg>